<?xml version="1.0" standalone="no"?>
<!DOCTYPE svg PUBLIC "-//W3C//DTD SVG 20010904//EN"
 "http://www.w3.org/TR/2001/REC-SVG-20010904/DTD/svg10.dtd">
<svg version="1.0" xmlns="http://www.w3.org/2000/svg"
 width="96.000000pt" height="96.000000pt" viewBox="0 0 96.000000 96.000000"
 preserveAspectRatio="xMidYMid meet">

<g transform="translate(0.000000,96.000000) scale(0.100000,-0.100000)"
fill="#000000" stroke="none">
<path d="M742 750 l-60 -50 -58 28 c-50 23 -72 27 -144 27 -77 0 -92 -3 -155
-34 -73 -36 -205 -156 -234 -213 -18 -36 -8 -57 73 -145 l61 -66 -55 -49 c-45
-40 -53 -52 -44 -65 17 -27 30 -26 70 9 211 182 631 553 638 563 10 13 -8 45
-24 45 -5 0 -35 -22 -68 -50z m-207 -124 c40 -17 42 -23 18 -42 -12 -8 -33
-11 -60 -7 -39 5 -45 3 -79 -31 -31 -31 -36 -41 -31 -70 4 -27 1 -39 -17 -55
l-23 -21 -11 25 c-33 72 6 167 83 201 39 17 78 17 120 0z"/>
<path d="M702 562 c-48 -44 -62 -63 -62 -85 0 -82 -67 -148 -158 -155 -48 -4
-63 -11 -104 -46 l-48 -41 38 -14 c20 -8 73 -14 118 -15 73 -1 86 2 156 36 57
29 92 56 144 111 89 94 102 118 83 153 -16 31 -88 114 -97 114 -4 -1 -35 -27
-70 -58z"/>
</g>
</svg>
